# xmcd CD database file
#
# Track frame offsets:
#	150
#	23970
#	40579
#	64248
#	88101
#	114184
#	135947
#	156819
#	179773
#	195749
#	220726
#
# Disc length: 3228 seconds
#
# Revision: 1
# Processed by: cddbd v1.5.2PL0 Copyright (c) Steve Scherf et al.
# Submitted via: CDex 1.70beta2
#
DISCID=910c9a0b
DTITLE=Eric Copeland - The Jazz In Me
DYEAR=2008
DGENRE=Jazz
TTITLE0=The Jazz In Me
TTITLE1=My Steps Are Ordered
TTITLE2=Softly And Tenderly
TTITLE3=On The Side
TTITLE4=In The Key Of Blue
TTITLE5=In Between Dreams
TTITLE6=El Caribe
TTITLE7=When She Returns
TTITLE8=Come To Me
TTITLE9=Have Thine Own Way
TTITLE10=Just As I Am
EXTD=YEAR: 2008
EXTT0=
EXTT1=
EXTT2=
EXTT3=
EXTT4=
EXTT5=
EXTT6=
EXTT7=
EXTT8=
EXTT9=
EXTT10=
PLAYORDER=
